# xmcd
#
# Track frame offsets:
#	150
#	19883
#	36018
#	54589
#	73688
#	90226
#	103010
#	117890
#	135069
#	150568
#
# Disc length: 2253 seconds
# Revision: 0
# Processed by: cddbd v1.5.2PL0 Copyright (c) Steve Scherf et al.
# Submitted via: dBpowerAMP V12.0
#
DISCID=7208cb0a
DTITLE=Andrew Adkins - Who I Am
DYEAR=2019
DGENRE=Country
TTITLE0=Who I Am
TTITLE1=Fragile Heart
TTITLE2=Southbound
TTITLE3=Praying For Rain
TTITLE4=Worries Behind
TTITLE5=Henry Ford Blues
TTITLE6=Every Monday Morning
TTITLE7=He Is Gone
TTITLE8=Echoes
TTITLE9=Burning The Tires Off
EXTD=
EXTT0=
EXTT1=
EXTT2=
EXTT3=
EXTT4=
EXTT5=
EXTT6=
EXTT7=
EXTT8=
EXTT9=
PLAYORDER=
